<svg xmlns="http://www.w3.org/2000/svg" xmlns:xlink="http://www.w3.org/1999/xlink" width="500" zoomAndPan="magnify" viewBox="0 0 375 74.999997" height="100" preserveAspectRatio="xMidYMid meet" version="1.0"><defs><g/></defs><path stroke-linecap="butt" transform="matrix(0.75, 0, 0, 0.75, 0.0000114202, -0.000001)" fill="none" stroke-linejoin="miter" d="M -0.0000152269 0.00000133333 L 500.000026 0.00000133333 L 500.000026 100.00001 L -0.0000152269 100.00001 Z M -0.0000152269 0.00000133333 " stroke="#ffffff" stroke-width="2" stroke-opacity="1" stroke-miterlimit="4"/><g fill="#ffffff" fill-opacity="1"><g transform="translate(3.984246, 47.399851)"><g><path d="M 3.152344 0 L 5.871094 0 L 5.871094 -7.105469 L 10.472656 -7.105469 C 15.355469 -7.105469 18.507812 -9.917969 18.507812 -14.367188 C 18.507812 -18.785156 15.355469 -21.628906 10.472656 -21.628906 L 3.152344 -21.628906 Z M 5.871094 -9.640625 L 5.871094 -19.03125 L 10.410156 -19.03125 C 13.902344 -19.03125 15.726562 -17.425781 15.726562 -14.335938 C 15.726562 -11.246094 13.902344 -9.640625 10.410156 -9.640625 Z M 5.871094 -9.640625 "/></g></g></g><g fill="#ffffff" fill-opacity="1"><g transform="translate(26.068295, 47.399851)"><g><path d="M 12.730469 0.402344 C 17.980469 0.402344 22.246094 -2.78125 23.542969 -7.601562 L 20.667969 -7.601562 C 19.558594 -4.355469 16.5 -2.316406 12.820312 -2.316406 C 8.003906 -2.316406 4.574219 -5.808594 4.574219 -10.8125 C 4.574219 -15.820312 8.003906 -19.308594 12.820312 -19.308594 C 16.40625 -19.308594 19.339844 -17.394531 20.453125 -14.273438 L 23.355469 -14.273438 C 21.9375 -19.03125 17.828125 -22.027344 12.730469 -22.027344 C 6.363281 -22.027344 1.792969 -17.332031 1.792969 -10.8125 C 1.792969 -4.292969 6.363281 0.402344 12.730469 0.402344 Z M 12.730469 0.402344 "/></g></g></g><g fill="#ffffff" fill-opacity="1"><g transform="translate(53.619061, 47.399851)"><g/></g></g><g fill="#ffffff" fill-opacity="1"><g transform="translate(63.626895, 47.399851)"><g><path d="M 3.152344 0 L 5.871094 0 L 5.871094 -7.105469 L 10.472656 -7.105469 C 15.355469 -7.105469 18.507812 -9.917969 18.507812 -14.367188 C 18.507812 -18.785156 15.355469 -21.628906 10.472656 -21.628906 L 3.152344 -21.628906 Z M 5.871094 -9.640625 L 5.871094 -19.03125 L 10.410156 -19.03125 C 13.902344 -19.03125 15.726562 -17.425781 15.726562 -14.335938 C 15.726562 -11.246094 13.902344 -9.640625 10.410156 -9.640625 Z M 5.871094 -9.640625 "/></g></g></g><g fill="#ffffff" fill-opacity="1"><g transform="translate(85.710944, 47.399851)"><g><path d="M 0.523438 0 L 3.429688 0 L 5.40625 -4.914062 L 15.941406 -4.914062 L 17.980469 0 L 20.855469 0 L 11.957031 -21.628906 L 9.421875 -21.628906 Z M 6.457031 -7.445312 L 10.691406 -17.828125 L 14.921875 -7.445312 Z M 6.457031 -7.445312 "/></g></g></g><g fill="#ffffff" fill-opacity="1"><g transform="translate(109.431915, 47.399851)"><g><path d="M 3.152344 0 L 5.871094 0 L 5.871094 -7.753906 L 10.628906 -7.753906 L 15.910156 0 L 19.1875 0 L 13.75 -8.03125 C 16.898438 -8.804688 18.847656 -11.183594 18.847656 -14.675781 C 18.847656 -18.96875 15.878906 -21.628906 11.402344 -21.628906 L 3.152344 -21.628906 Z M 5.871094 -10.351562 L 5.871094 -19.03125 L 11.089844 -19.03125 C 14.242188 -19.03125 16.066406 -17.425781 16.066406 -14.675781 C 16.066406 -11.925781 14.242188 -10.351562 11.089844 -10.351562 Z M 5.871094 -10.351562 "/></g></g></g><g fill="#ffffff" fill-opacity="1"><g transform="translate(132.813153, 47.399851)"><g><path d="M 8.371094 0 L 11.089844 0 L 11.089844 -19.03125 L 18.382812 -19.03125 L 18.382812 -21.628906 L 1.050781 -21.628906 L 1.050781 -19.03125 L 8.371094 -19.03125 Z M 8.371094 0 "/></g></g></g><g fill="#ffffff" fill-opacity="1"><g transform="translate(154.619233, 47.399851)"><g><path d="M 10.351562 0.402344 C 15.078125 0.402344 18.136719 -1.914062 18.136719 -5.683594 C 18.136719 -8.867188 16.003906 -10.78125 10.472656 -12.140625 C 6.273438 -13.160156 4.882812 -14.273438 4.882812 -16.066406 C 4.882812 -18.136719 6.734375 -19.433594 9.824219 -19.433594 C 13.007812 -19.433594 14.984375 -17.828125 15.046875 -15.230469 L 17.734375 -15.230469 C 17.703125 -19.433594 14.675781 -22.027344 9.824219 -22.027344 C 5.097656 -22.027344 2.101562 -19.710938 2.101562 -16.066406 C 2.101562 -12.730469 4.480469 -10.875 9.792969 -9.609375 C 13.6875 -8.683594 15.324219 -7.601562 15.324219 -5.59375 C 15.324219 -3.460938 13.410156 -2.195312 10.351562 -2.195312 C 6.984375 -2.195312 4.632812 -3.863281 4.574219 -6.644531 L 1.855469 -6.644531 C 1.882812 -2.410156 5.191406 0.402344 10.351562 0.402344 Z M 10.351562 0.402344 "/></g></g></g><g fill="#ffffff" fill-opacity="1"><g transform="translate(179.278687, 47.566234)"><g><path d="M 10.039062 0.464844 C 15.417969 0.464844 18.597656 -2.070312 18.597656 -6.332031 C 18.597656 -9.917969 16.28125 -12.019531 11.03125 -13.191406 C 8.25 -13.808594 7.230469 -14.488281 7.230469 -15.601562 C 7.230469 -16.652344 8.15625 -17.300781 9.609375 -17.300781 C 11.339844 -17.300781 12.328125 -16.40625 12.328125 -14.769531 L 18.195312 -14.769531 C 18.195312 -19.214844 14.796875 -22.089844 9.484375 -22.089844 C 4.386719 -22.089844 1.234375 -19.554688 1.234375 -15.476562 C 1.234375 -11.832031 3.613281 -9.578125 8.496094 -8.652344 C 11.121094 -8.125 12.390625 -7.320312 12.390625 -6.085938 C 12.390625 -5.003906 11.460938 -4.386719 9.949219 -4.386719 C 8.15625 -4.386719 7.105469 -5.34375 7.105469 -7.011719 L 1.082031 -7.011719 C 1.082031 -2.347656 4.417969 0.464844 10.039062 0.464844 Z M 10.039062 0.464844 "/></g></g></g><g fill="#ffffff" fill-opacity="1"><g transform="translate(199.019367, 47.566234)"><g><path d="M 2.285156 0 L 8.527344 0 L 8.527344 -5.34375 L 11.398438 -5.34375 C 16.898438 -5.34375 20.390625 -8.527344 20.390625 -13.5 C 20.390625 -18.476562 16.898438 -21.625 11.398438 -21.625 L 2.285156 -21.625 Z M 8.464844 -10.566406 L 8.464844 -16.375 L 10.8125 -16.375 C 12.882812 -16.375 14.089844 -15.261719 14.089844 -13.46875 C 14.089844 -11.648438 12.882812 -10.566406 10.8125 -10.566406 Z M 8.464844 -10.566406 "/></g></g></g><g fill="#ffffff" fill-opacity="1"><g transform="translate(220.119339, 47.566234)"><g><path d="M 2.285156 0 L 17.457031 0 L 17.457031 -5.097656 L 8.464844 -5.097656 L 8.464844 -8.433594 L 16.28125 -8.433594 L 16.28125 -13.4375 L 8.464844 -13.4375 L 8.464844 -16.589844 L 17.117188 -16.589844 L 17.117188 -21.625 L 2.285156 -21.625 Z M 2.285156 0 "/></g></g></g><g fill="#ffffff" fill-opacity="1"><g transform="translate(238.964111, 47.566234)"><g><path d="M 12.390625 0.464844 C 18.351562 0.464844 22.863281 -3.152344 23.789062 -8.652344 L 17.457031 -8.652344 C 16.683594 -6.613281 14.859375 -5.3125 12.511719 -5.3125 C 9.484375 -5.3125 7.382812 -7.570312 7.382812 -10.8125 C 7.382812 -14.089844 9.515625 -16.3125 12.574219 -16.3125 C 14.828125 -16.3125 16.714844 -15.046875 17.363281 -13.097656 L 23.664062 -13.097656 C 22.554688 -18.566406 18.105469 -22.089844 12.328125 -22.089844 C 5.652344 -22.089844 1.050781 -17.488281 1.050781 -10.8125 C 1.050781 -4.140625 5.652344 0.464844 12.390625 0.464844 Z M 12.390625 0.464844 "/></g></g></g><g fill="#ffffff" fill-opacity="1"><g transform="translate(263.740354, 47.566234)"><g><path d="M 2.285156 0 L 8.527344 0 L 8.527344 -21.625 L 2.285156 -21.625 Z M 2.285156 0 "/></g></g></g><g fill="#ffffff" fill-opacity="1"><g transform="translate(274.552937, 47.566234)"><g><path d="M 0.15625 0 L 6.765625 0 L 7.941406 -3.058594 L 15.324219 -3.058594 L 16.496094 0 L 23.140625 0 L 14.738281 -21.625 L 8.558594 -21.625 Z M 9.238281 -7.632812 L 11.648438 -14.335938 L 14.058594 -7.632812 Z M 9.238281 -7.632812 "/></g></g></g><g fill="#ffffff" fill-opacity="1"><g transform="translate(297.846312, 47.566234)"><g><path d="M 2.285156 0 L 17.363281 0 L 17.363281 -5.777344 L 8.527344 -5.777344 L 8.527344 -21.625 L 2.285156 -21.625 Z M 2.285156 0 "/></g></g></g><g fill="#ffffff" fill-opacity="1"><g transform="translate(315.980548, 47.566234)"><g><path d="M 2.285156 0 L 8.527344 0 L 8.527344 -21.625 L 2.285156 -21.625 Z M 2.285156 0 "/></g></g></g><g fill="#ffffff" fill-opacity="1"><g transform="translate(326.793131, 47.566234)"><g><path d="M 10.039062 0.464844 C 15.417969 0.464844 18.597656 -2.070312 18.597656 -6.332031 C 18.597656 -9.917969 16.28125 -12.019531 11.03125 -13.191406 C 8.25 -13.808594 7.230469 -14.488281 7.230469 -15.601562 C 7.230469 -16.652344 8.15625 -17.300781 9.609375 -17.300781 C 11.339844 -17.300781 12.328125 -16.40625 12.328125 -14.769531 L 18.195312 -14.769531 C 18.195312 -19.214844 14.796875 -22.089844 9.484375 -22.089844 C 4.386719 -22.089844 1.234375 -19.554688 1.234375 -15.476562 C 1.234375 -11.832031 3.613281 -9.578125 8.496094 -8.652344 C 11.121094 -8.125 12.390625 -7.320312 12.390625 -6.085938 C 12.390625 -5.003906 11.460938 -4.386719 9.949219 -4.386719 C 8.15625 -4.386719 7.105469 -5.34375 7.105469 -7.011719 L 1.082031 -7.011719 C 1.082031 -2.347656 4.417969 0.464844 10.039062 0.464844 Z M 10.039062 0.464844 "/></g></g></g><g fill="#ffffff" fill-opacity="1"><g transform="translate(346.53381, 47.566234)"><g><path d="M 7.445312 0 L 13.65625 0 L 13.65625 -15.847656 L 20.234375 -15.847656 L 20.234375 -21.625 L 0.863281 -21.625 L 0.863281 -15.847656 L 7.445312 -15.847656 Z M 7.445312 0 "/></g></g></g></svg>