<svg xmlns="http://www.w3.org/2000/svg" xmlns:xlink="http://www.w3.org/1999/xlink" width="500" zoomAndPan="magnify" viewBox="0 0 375 149.999998" height="200" preserveAspectRatio="xMidYMid meet" version="1.0"><defs><g/><clipPath id="3cbfd0e14f"><path d="M 0.09375 20.332031 L 375 20.332031 L 375 108.832031 L 0.09375 108.832031 Z M 0.09375 20.332031 " clip-rule="nonzero"/></clipPath><clipPath id="f68a742032"><path d="M 152.210938 29.765625 L 366.710938 29.765625 L 366.710938 98.765625 L 152.210938 98.765625 Z M 152.210938 29.765625 " clip-rule="nonzero"/></clipPath><clipPath id="76b636d9d0"><path d="M 21.238281 20.332031 L 123.238281 20.332031 L 123.238281 108.832031 L 21.238281 108.832031 Z M 21.238281 20.332031 " clip-rule="nonzero"/></clipPath></defs><g clip-path="url(#3cbfd0e14f)"><path fill="#fb4f14" d="M 0.09375 20.332031 L 375.09375 20.332031 L 375.09375 108.832031 L 0.09375 108.832031 Z M 0.09375 20.332031 " fill-opacity="1" fill-rule="nonzero"/></g><g clip-path="url(#f68a742032)"><path fill="#ffffff" d="M 152.210938 29.765625 L 366.710938 29.765625 L 366.710938 98.765625 L 152.210938 98.765625 Z M 152.210938 29.765625 " fill-opacity="1" fill-rule="nonzero"/></g><g fill="#fb4f14" fill-opacity="1"><g transform="translate(159.74591, 79.125662)"><g><path d="M 1.902344 -5.476562 C 1.902344 -1.902344 3.800781 0 7.375 0 L 12.394531 0 C 15.933594 0 17.871094 -1.902344 17.871094 -5.476562 L 17.871094 -16.046875 C 17.871094 -16.464844 17.644531 -16.65625 17.261719 -16.65625 L 10.875 -16.65625 C 10.457031 -16.65625 10.265625 -16.464844 10.265625 -16.046875 L 10.265625 -12.242188 C 10.265625 -11.863281 10.457031 -11.636719 10.875 -11.636719 L 12.851562 -11.636719 L 12.851562 -6.539062 C 12.851562 -5.511719 12.320312 -5.019531 11.332031 -5.019531 L 8.59375 -5.019531 C 7.605469 -5.019531 7.074219 -5.511719 7.074219 -6.539062 L 7.074219 -23.878906 C 7.074219 -24.867188 7.566406 -25.398438 8.59375 -25.398438 L 11.332031 -25.398438 C 12.320312 -25.398438 12.851562 -24.867188 12.851562 -23.878906 L 12.851562 -20.988281 C 12.851562 -20.609375 13.042969 -20.382812 13.460938 -20.382812 L 17.261719 -20.382812 C 17.644531 -20.382812 17.871094 -20.609375 17.871094 -20.988281 L 17.871094 -24.945312 C 17.871094 -28.519531 15.933594 -30.417969 12.394531 -30.417969 L 7.375 -30.417969 C 3.800781 -30.417969 1.902344 -28.519531 1.902344 -24.945312 Z M 1.902344 -5.476562 "/></g></g></g><g fill="#fb4f14" fill-opacity="1"><g transform="translate(179.516892, 79.125662)"><g><path d="M 19.847656 0 C 20.304688 0 20.496094 -0.226562 20.382812 -0.644531 L 14.070312 -26.085938 C 13.992188 -26.464844 13.765625 -26.617188 13.421875 -26.617188 L 8.136719 -26.617188 C 7.796875 -26.617188 7.566406 -26.464844 7.492188 -26.085938 L 1.179688 -0.644531 C 1.066406 -0.226562 1.253906 0 1.671875 0 L 5.398438 0 C 5.742188 0 5.933594 -0.191406 6.007812 -0.53125 L 7.1875 -5.324219 L 14.335938 -5.324219 L 15.550781 -0.53125 C 15.628906 -0.191406 15.816406 0 16.160156 0 Z M 13.15625 -9.734375 L 8.367188 -9.734375 L 10.761719 -20.078125 Z M 13.15625 -9.734375 "/></g></g></g><g fill="#fb4f14" fill-opacity="1"><g transform="translate(201.074865, 79.125662)"><g><path d="M 17.796875 -26.617188 C 17.339844 -26.617188 17.074219 -26.390625 16.957031 -25.972656 L 12.738281 -9.011719 L 8.515625 -25.972656 C 8.402344 -26.390625 8.136719 -26.617188 7.679688 -26.617188 L 2.660156 -26.617188 C 2.167969 -26.617188 1.902344 -26.351562 1.902344 -25.855469 L 1.902344 -0.761719 C 1.902344 -0.265625 2.167969 0 2.660156 0 L 6.160156 0 C 6.652344 0 6.921875 -0.265625 6.921875 -0.761719 L 6.921875 -15.703125 L 7.1875 -15.703125 L 10.761719 -0.644531 C 10.875 -0.226562 11.140625 0 11.597656 0 L 13.839844 0 C 14.296875 0 14.5625 -0.226562 14.675781 -0.644531 L 18.25 -15.703125 L 18.519531 -15.703125 L 18.519531 -0.761719 C 18.519531 -0.265625 18.785156 0 19.277344 0 L 22.816406 0 C 23.308594 0 23.574219 -0.265625 23.574219 -0.761719 L 23.574219 -25.855469 C 23.574219 -26.351562 23.308594 -26.617188 22.816406 -26.617188 Z M 17.796875 -26.617188 "/></g></g></g><g fill="#fb4f14" fill-opacity="1"><g transform="translate(226.549012, 79.125662)"><g><path d="M 17.074219 -26.007812 C 17.074219 -26.390625 16.921875 -26.617188 16.464844 -26.617188 L 2.472656 -26.617188 C 2.128906 -26.617188 1.902344 -26.390625 1.902344 -26.007812 L 1.902344 -0.609375 C 1.902344 -0.226562 2.128906 0 2.472656 0 L 16.464844 0 C 16.921875 0 17.074219 -0.226562 17.074219 -0.609375 L 17.074219 -4.410156 C 17.074219 -4.828125 16.921875 -5.019531 16.464844 -5.019531 L 7.074219 -5.019531 L 7.074219 -10.648438 L 14.222656 -10.648438 C 14.601562 -10.648438 14.828125 -10.875 14.828125 -11.292969 L 14.828125 -15.058594 C 14.828125 -15.476562 14.601562 -15.703125 14.222656 -15.703125 L 7.074219 -15.703125 L 7.074219 -21.558594 L 16.464844 -21.558594 C 16.921875 -21.558594 17.074219 -21.824219 17.074219 -22.207031 Z M 17.074219 -26.007812 "/></g></g></g><g fill="#fb4f14" fill-opacity="1"><g transform="translate(245.52155, 79.125662)"><g><path d="M 17.109375 -21.140625 C 17.109375 -24.714844 15.210938 -26.617188 11.636719 -26.617188 L 2.507812 -26.617188 C 2.128906 -26.617188 1.902344 -26.390625 1.902344 -26.007812 L 1.902344 -0.609375 C 1.902344 -0.226562 2.128906 0 2.507812 0 L 6.234375 0 C 6.617188 0 6.84375 -0.226562 6.84375 -0.609375 L 6.84375 -8.023438 L 10.230469 -8.023438 L 12.054688 -0.53125 C 12.128906 -0.191406 12.320312 0 12.699219 0 L 16.425781 0 C 16.84375 0 17.074219 -0.226562 16.957031 -0.683594 L 14.980469 -8.859375 C 16.386719 -9.734375 17.109375 -11.292969 17.109375 -13.5 Z M 6.84375 -12.929688 L 6.84375 -21.710938 L 10.648438 -21.710938 C 11.636719 -21.710938 12.167969 -21.179688 12.167969 -20.191406 L 12.167969 -14.449219 C 12.167969 -13.460938 11.636719 -12.929688 10.648438 -12.929688 Z M 6.84375 -12.929688 "/></g></g></g><g fill="#fb4f14" fill-opacity="1"><g transform="translate(264.532114, 79.125662)"><g/></g></g><g fill="#fb4f14" fill-opacity="1"><g transform="translate(274.037396, 79.125662)"><g><path d="M 11.941406 -6.539062 C 11.941406 -5.550781 11.40625 -5.019531 10.417969 -5.019531 L 8.441406 -5.019531 C 7.453125 -5.019531 6.921875 -5.550781 6.921875 -6.539062 L 6.921875 -9.429688 C 6.921875 -9.808594 6.691406 -10.039062 6.3125 -10.039062 L 2.507812 -10.039062 C 2.089844 -10.039062 1.902344 -9.808594 1.902344 -9.429688 L 1.902344 -5.476562 C 1.902344 -1.902344 3.800781 0 7.375 0 L 11.636719 0 C 15.171875 0 17.109375 -1.902344 17.109375 -5.476562 L 17.109375 -29.8125 C 17.109375 -30.191406 16.882812 -30.417969 16.503906 -30.417969 L 12.546875 -30.417969 C 12.128906 -30.417969 11.941406 -30.191406 11.941406 -29.8125 Z M 11.941406 -6.539062 "/></g></g></g><g fill="#fb4f14" fill-opacity="1"><g transform="translate(293.047961, 79.125662)"><g><path d="M 12.851562 -26.617188 C 12.433594 -26.617188 12.09375 -26.273438 12.09375 -25.855469 L 12.09375 -6.539062 C 12.09375 -5.511719 11.558594 -5.019531 10.570312 -5.019531 L 8.59375 -5.019531 C 7.605469 -5.019531 7.074219 -5.511719 7.074219 -6.539062 L 7.074219 -25.855469 C 7.074219 -26.273438 6.730469 -26.617188 6.3125 -26.617188 L 2.660156 -26.617188 C 2.242188 -26.617188 1.902344 -26.273438 1.902344 -25.855469 L 1.902344 -5.476562 C 1.902344 -1.902344 3.800781 0 7.375 0 L 11.636719 0 C 15.210938 0 17.109375 -1.902344 17.109375 -5.476562 L 17.109375 -25.855469 C 17.109375 -26.273438 16.769531 -26.617188 16.351562 -26.617188 Z M 12.851562 -26.617188 "/></g></g></g><g fill="#fb4f14" fill-opacity="1"><g transform="translate(312.058525, 79.125662)"><g><path d="M 2.507812 0 C 2.089844 0 1.902344 -0.226562 1.902344 -0.609375 L 1.902344 -26.007812 C 1.902344 -26.390625 2.089844 -26.617188 2.507812 -26.617188 L 6.464844 -26.617188 C 6.84375 -26.617188 7.074219 -26.390625 7.074219 -26.007812 L 7.074219 -0.609375 C 7.074219 -0.226562 6.84375 0 6.464844 0 Z M 2.507812 0 "/></g></g></g><g fill="#fb4f14" fill-opacity="1"><g transform="translate(321.031515, 79.125662)"><g><path d="M 17.148438 -21.140625 C 17.148438 -24.714844 15.210938 -26.617188 11.671875 -26.617188 L 7.414062 -26.617188 C 3.839844 -26.617188 1.902344 -24.714844 1.902344 -21.140625 L 1.902344 -5.476562 C 1.902344 -1.902344 3.839844 0 7.414062 0 L 11.671875 0 C 15.210938 0 17.148438 -1.902344 17.148438 -5.476562 L 17.148438 -9.582031 C 17.148438 -9.960938 16.921875 -10.191406 16.539062 -10.191406 L 12.964844 -10.191406 C 12.546875 -10.191406 12.359375 -9.960938 12.359375 -9.582031 L 12.359375 -6.351562 C 12.359375 -5.324219 11.824219 -4.828125 10.835938 -4.828125 L 8.402344 -4.828125 C 7.414062 -4.828125 6.882812 -5.324219 6.882812 -6.351562 L 6.882812 -20.152344 C 6.882812 -21.140625 7.375 -21.675781 8.402344 -21.675781 L 10.835938 -21.675781 C 11.824219 -21.675781 12.359375 -21.140625 12.359375 -20.152344 L 12.359375 -17.035156 C 12.359375 -16.65625 12.546875 -16.425781 12.964844 -16.425781 L 16.539062 -16.425781 C 16.921875 -16.425781 17.148438 -16.65625 17.148438 -17.035156 Z M 17.148438 -21.140625 "/></g></g></g><g fill="#fb4f14" fill-opacity="1"><g transform="translate(340.080094, 79.125662)"><g><path d="M 17.074219 -26.007812 C 17.074219 -26.390625 16.921875 -26.617188 16.464844 -26.617188 L 2.472656 -26.617188 C 2.128906 -26.617188 1.902344 -26.390625 1.902344 -26.007812 L 1.902344 -0.609375 C 1.902344 -0.226562 2.128906 0 2.472656 0 L 16.464844 0 C 16.921875 0 17.074219 -0.226562 17.074219 -0.609375 L 17.074219 -4.410156 C 17.074219 -4.828125 16.921875 -5.019531 16.464844 -5.019531 L 7.074219 -5.019531 L 7.074219 -10.648438 L 14.222656 -10.648438 C 14.601562 -10.648438 14.828125 -10.875 14.828125 -11.292969 L 14.828125 -15.058594 C 14.828125 -15.476562 14.601562 -15.703125 14.222656 -15.703125 L 7.074219 -15.703125 L 7.074219 -21.558594 L 16.464844 -21.558594 C 16.921875 -21.558594 17.074219 -21.824219 17.074219 -22.207031 Z M 17.074219 -26.007812 "/></g></g></g><g fill="#fb4f14" fill-opacity="1"><g transform="translate(89.420581, 132.615706)"><g><path d="M 5.4375 -6.984375 C 5.394531 -6.898438 5.34375 -6.835938 5.28125 -6.796875 C 5.226562 -6.765625 5.160156 -6.75 5.078125 -6.75 C 5.003906 -6.75 4.914062 -6.78125 4.8125 -6.84375 C 4.71875 -6.90625 4.601562 -6.972656 4.46875 -7.046875 C 4.332031 -7.117188 4.175781 -7.1875 4 -7.25 C 3.820312 -7.3125 3.609375 -7.34375 3.359375 -7.34375 C 3.140625 -7.34375 2.945312 -7.316406 2.78125 -7.265625 C 2.625 -7.210938 2.488281 -7.140625 2.375 -7.046875 C 2.257812 -6.953125 2.175781 -6.835938 2.125 -6.703125 C 2.070312 -6.566406 2.046875 -6.421875 2.046875 -6.265625 C 2.046875 -6.066406 2.097656 -5.898438 2.203125 -5.765625 C 2.316406 -5.628906 2.46875 -5.515625 2.65625 -5.421875 C 2.84375 -5.328125 3.050781 -5.242188 3.28125 -5.171875 C 3.519531 -5.097656 3.757812 -5.015625 4 -4.921875 C 4.25 -4.835938 4.492188 -4.738281 4.734375 -4.625 C 4.972656 -4.519531 5.179688 -4.378906 5.359375 -4.203125 C 5.546875 -4.035156 5.695312 -3.828125 5.8125 -3.578125 C 5.925781 -3.328125 5.984375 -3.023438 5.984375 -2.671875 C 5.984375 -2.285156 5.914062 -1.925781 5.78125 -1.59375 C 5.65625 -1.257812 5.460938 -0.96875 5.203125 -0.71875 C 4.953125 -0.46875 4.644531 -0.269531 4.28125 -0.125 C 3.914062 0.0195312 3.492188 0.09375 3.015625 0.09375 C 2.742188 0.09375 2.472656 0.0664062 2.203125 0.015625 C 1.941406 -0.0351562 1.691406 -0.109375 1.453125 -0.203125 C 1.210938 -0.304688 0.984375 -0.425781 0.765625 -0.5625 C 0.554688 -0.707031 0.375 -0.863281 0.21875 -1.03125 L 0.671875 -1.796875 C 0.710938 -1.847656 0.765625 -1.890625 0.828125 -1.921875 C 0.890625 -1.960938 0.957031 -1.984375 1.03125 -1.984375 C 1.132812 -1.984375 1.242188 -1.941406 1.359375 -1.859375 C 1.472656 -1.785156 1.601562 -1.695312 1.75 -1.59375 C 1.90625 -1.5 2.085938 -1.410156 2.296875 -1.328125 C 2.515625 -1.242188 2.769531 -1.203125 3.0625 -1.203125 C 3.519531 -1.203125 3.867188 -1.304688 4.109375 -1.515625 C 4.359375 -1.734375 4.484375 -2.046875 4.484375 -2.453125 C 4.484375 -2.671875 4.425781 -2.851562 4.3125 -3 C 4.207031 -3.144531 4.0625 -3.265625 3.875 -3.359375 C 3.6875 -3.453125 3.472656 -3.53125 3.234375 -3.59375 C 3.003906 -3.664062 2.765625 -3.738281 2.515625 -3.8125 C 2.273438 -3.894531 2.035156 -3.988281 1.796875 -4.09375 C 1.566406 -4.207031 1.359375 -4.351562 1.171875 -4.53125 C 0.984375 -4.707031 0.832031 -4.925781 0.71875 -5.1875 C 0.613281 -5.457031 0.5625 -5.789062 0.5625 -6.1875 C 0.5625 -6.5 0.617188 -6.800781 0.734375 -7.09375 C 0.859375 -7.382812 1.039062 -7.644531 1.28125 -7.875 C 1.519531 -8.101562 1.8125 -8.285156 2.15625 -8.421875 C 2.507812 -8.566406 2.90625 -8.640625 3.34375 -8.640625 C 3.851562 -8.640625 4.316406 -8.554688 4.734375 -8.390625 C 5.160156 -8.234375 5.523438 -8.015625 5.828125 -7.734375 Z M 5.4375 -6.984375 "/></g></g></g><g fill="#fb4f14" fill-opacity="1"><g transform="translate(102.725026, 132.615706)"><g><path d="M 2.5 -3 L 2.5 0 L 0.921875 0 L 0.921875 -8.546875 L 3.703125 -8.546875 C 4.265625 -8.546875 4.753906 -8.476562 5.171875 -8.34375 C 5.597656 -8.207031 5.945312 -8.019531 6.21875 -7.78125 C 6.488281 -7.539062 6.6875 -7.253906 6.8125 -6.921875 C 6.945312 -6.585938 7.015625 -6.21875 7.015625 -5.8125 C 7.015625 -5.40625 6.941406 -5.023438 6.796875 -4.671875 C 6.660156 -4.328125 6.453125 -4.03125 6.171875 -3.78125 C 5.898438 -3.539062 5.554688 -3.347656 5.140625 -3.203125 C 4.734375 -3.066406 4.253906 -3 3.703125 -3 Z M 2.5 -4.25 L 3.703125 -4.25 C 3.992188 -4.25 4.242188 -4.285156 4.453125 -4.359375 C 4.671875 -4.429688 4.847656 -4.535156 4.984375 -4.671875 C 5.128906 -4.804688 5.238281 -4.96875 5.3125 -5.15625 C 5.382812 -5.351562 5.421875 -5.570312 5.421875 -5.8125 C 5.421875 -6.039062 5.382812 -6.25 5.3125 -6.4375 C 5.238281 -6.625 5.128906 -6.78125 4.984375 -6.90625 C 4.847656 -7.039062 4.671875 -7.140625 4.453125 -7.203125 C 4.242188 -7.273438 3.992188 -7.3125 3.703125 -7.3125 L 2.5 -7.3125 Z M 2.5 -4.25 "/></g></g></g><g fill="#fb4f14" fill-opacity="1"><g transform="translate(117.074677, 132.615706)"><g><path d="M 9.046875 -4.265625 C 9.046875 -3.640625 8.941406 -3.0625 8.734375 -2.53125 C 8.523438 -2 8.234375 -1.535156 7.859375 -1.140625 C 7.484375 -0.753906 7.03125 -0.453125 6.5 -0.234375 C 5.96875 -0.015625 5.378906 0.09375 4.734375 0.09375 C 4.085938 0.09375 3.492188 -0.015625 2.953125 -0.234375 C 2.421875 -0.453125 1.960938 -0.753906 1.578125 -1.140625 C 1.203125 -1.535156 0.910156 -2 0.703125 -2.53125 C 0.492188 -3.0625 0.390625 -3.640625 0.390625 -4.265625 C 0.390625 -4.890625 0.492188 -5.46875 0.703125 -6 C 0.910156 -6.539062 1.203125 -7.003906 1.578125 -7.390625 C 1.960938 -7.785156 2.421875 -8.09375 2.953125 -8.3125 C 3.492188 -8.53125 4.085938 -8.640625 4.734375 -8.640625 C 5.378906 -8.640625 5.96875 -8.523438 6.5 -8.296875 C 7.03125 -8.078125 7.484375 -7.773438 7.859375 -7.390625 C 8.234375 -7.003906 8.523438 -6.539062 8.734375 -6 C 8.941406 -5.46875 9.046875 -4.890625 9.046875 -4.265625 Z M 7.421875 -4.265625 C 7.421875 -4.734375 7.359375 -5.15625 7.234375 -5.53125 C 7.109375 -5.90625 6.929688 -6.222656 6.703125 -6.484375 C 6.472656 -6.742188 6.191406 -6.941406 5.859375 -7.078125 C 5.523438 -7.210938 5.148438 -7.28125 4.734375 -7.28125 C 4.316406 -7.28125 3.9375 -7.210938 3.59375 -7.078125 C 3.257812 -6.941406 2.972656 -6.742188 2.734375 -6.484375 C 2.503906 -6.222656 2.328125 -5.90625 2.203125 -5.53125 C 2.078125 -5.15625 2.015625 -4.734375 2.015625 -4.265625 C 2.015625 -3.796875 2.078125 -3.375 2.203125 -3 C 2.328125 -2.632812 2.503906 -2.320312 2.734375 -2.0625 C 2.972656 -1.800781 3.257812 -1.601562 3.59375 -1.46875 C 3.9375 -1.332031 4.316406 -1.265625 4.734375 -1.265625 C 5.148438 -1.265625 5.523438 -1.332031 5.859375 -1.46875 C 6.191406 -1.601562 6.472656 -1.800781 6.703125 -2.0625 C 6.929688 -2.320312 7.109375 -2.632812 7.234375 -3 C 7.359375 -3.375 7.421875 -3.796875 7.421875 -4.265625 Z M 7.421875 -4.265625 "/></g></g></g><g fill="#fb4f14" fill-opacity="1"><g transform="translate(133.485195, 132.615706)"><g><path d="M 2.5 -3.34375 L 2.5 0 L 0.921875 0 L 0.921875 -8.546875 L 3.515625 -8.546875 C 4.097656 -8.546875 4.597656 -8.484375 5.015625 -8.359375 C 5.429688 -8.242188 5.769531 -8.078125 6.03125 -7.859375 C 6.300781 -7.640625 6.5 -7.378906 6.625 -7.078125 C 6.75 -6.773438 6.8125 -6.441406 6.8125 -6.078125 C 6.8125 -5.796875 6.769531 -5.523438 6.6875 -5.265625 C 6.601562 -5.015625 6.476562 -4.785156 6.3125 -4.578125 C 6.15625 -4.367188 5.957031 -4.179688 5.71875 -4.015625 C 5.488281 -3.859375 5.222656 -3.734375 4.921875 -3.640625 C 5.128906 -3.523438 5.304688 -3.363281 5.453125 -3.15625 L 7.578125 0 L 6.15625 0 C 6.019531 0 5.898438 -0.0234375 5.796875 -0.078125 C 5.703125 -0.140625 5.625 -0.21875 5.5625 -0.3125 L 3.765625 -3.046875 C 3.691406 -3.148438 3.613281 -3.222656 3.53125 -3.265625 C 3.457031 -3.316406 3.34375 -3.34375 3.1875 -3.34375 Z M 2.5 -4.484375 L 3.5 -4.484375 C 3.800781 -4.484375 4.0625 -4.519531 4.28125 -4.59375 C 4.5 -4.664062 4.679688 -4.765625 4.828125 -4.890625 C 4.972656 -5.023438 5.078125 -5.179688 5.140625 -5.359375 C 5.210938 -5.546875 5.25 -5.75 5.25 -5.96875 C 5.25 -6.394531 5.109375 -6.722656 4.828125 -6.953125 C 4.546875 -7.191406 4.109375 -7.3125 3.515625 -7.3125 L 2.5 -7.3125 Z M 2.5 -4.484375 "/></g></g></g><g fill="#fb4f14" fill-opacity="1"><g transform="translate(148.189145, 132.615706)"><g><path d="M 6.875 -8.546875 L 6.875 -7.234375 L 4.3125 -7.234375 L 4.3125 0 L 2.71875 0 L 2.71875 -7.234375 L 0.140625 -7.234375 L 0.140625 -8.546875 Z M 6.875 -8.546875 "/></g></g></g><g fill="#fb4f14" fill-opacity="1"><g transform="translate(162.184493, 132.615706)"><g/></g></g><g fill="#fb4f14" fill-opacity="1"><g transform="translate(171.432156, 132.615706)"><g><path d="M 6.25 -8.546875 L 6.25 -7.28125 L 2.46875 -7.28125 L 2.46875 -4.90625 L 5.453125 -4.90625 L 5.453125 -3.6875 L 2.46875 -3.6875 L 2.46875 -1.265625 L 6.25 -1.265625 L 6.25 0 L 0.859375 0 L 0.859375 -8.546875 Z M 6.25 -8.546875 "/></g></g></g><g fill="#fb4f14" fill-opacity="1"><g transform="translate(185.161772, 132.615706)"><g><path d="M 1.6875 -8.546875 C 1.757812 -8.546875 1.816406 -8.539062 1.859375 -8.53125 C 1.910156 -8.519531 1.957031 -8.503906 2 -8.484375 C 2.039062 -8.472656 2.078125 -8.453125 2.109375 -8.421875 C 2.140625 -8.390625 2.179688 -8.34375 2.234375 -8.28125 L 6.703125 -2.578125 C 6.691406 -2.710938 6.679688 -2.84375 6.671875 -2.96875 C 6.671875 -3.101562 6.671875 -3.226562 6.671875 -3.34375 L 6.671875 -8.546875 L 8.0625 -8.546875 L 8.0625 0 L 7.25 0 C 7.125 0 7.019531 -0.0195312 6.9375 -0.0625 C 6.851562 -0.101562 6.769531 -0.171875 6.6875 -0.265625 L 2.234375 -5.953125 C 2.242188 -5.828125 2.25 -5.703125 2.25 -5.578125 C 2.257812 -5.453125 2.265625 -5.34375 2.265625 -5.25 L 2.265625 0 L 0.859375 0 L 0.859375 -8.546875 Z M 1.6875 -8.546875 "/></g></g></g><g fill="#fb4f14" fill-opacity="1"><g transform="translate(201.058546, 132.615706)"><g><path d="M 8.0625 0 L 6.46875 0 L 6.46875 -3.734375 L 2.46875 -3.734375 L 2.46875 0 L 0.859375 0 L 0.859375 -8.546875 L 2.46875 -8.546875 L 2.46875 -4.859375 L 6.46875 -4.859375 L 6.46875 -8.546875 L 8.0625 -8.546875 Z M 8.0625 0 "/></g></g></g><g fill="#fb4f14" fill-opacity="1"><g transform="translate(216.955327, 132.615706)"><g><path d="M 8.375 0 L 7.140625 0 C 7.003906 0 6.890625 -0.03125 6.796875 -0.09375 C 6.710938 -0.164062 6.648438 -0.253906 6.609375 -0.359375 L 5.96875 -2.109375 L 2.4375 -2.109375 L 1.796875 -0.359375 C 1.765625 -0.265625 1.703125 -0.179688 1.609375 -0.109375 C 1.515625 -0.0351562 1.398438 0 1.265625 0 L 0.03125 0 L 3.390625 -8.546875 L 5.015625 -8.546875 Z M 2.84375 -3.21875 L 5.5625 -3.21875 L 4.53125 -6.0625 C 4.476562 -6.1875 4.421875 -6.332031 4.359375 -6.5 C 4.304688 -6.675781 4.253906 -6.863281 4.203125 -7.0625 C 4.140625 -6.863281 4.082031 -6.675781 4.03125 -6.5 C 3.976562 -6.332031 3.925781 -6.179688 3.875 -6.046875 Z M 2.84375 -3.21875 "/></g></g></g><g fill="#fb4f14" fill-opacity="1"><g transform="translate(232.308839, 132.615706)"><g><path d="M 1.6875 -8.546875 C 1.757812 -8.546875 1.816406 -8.539062 1.859375 -8.53125 C 1.910156 -8.519531 1.957031 -8.503906 2 -8.484375 C 2.039062 -8.472656 2.078125 -8.453125 2.109375 -8.421875 C 2.140625 -8.390625 2.179688 -8.34375 2.234375 -8.28125 L 6.703125 -2.578125 C 6.691406 -2.710938 6.679688 -2.84375 6.671875 -2.96875 C 6.671875 -3.101562 6.671875 -3.226562 6.671875 -3.34375 L 6.671875 -8.546875 L 8.0625 -8.546875 L 8.0625 0 L 7.25 0 C 7.125 0 7.019531 -0.0195312 6.9375 -0.0625 C 6.851562 -0.101562 6.769531 -0.171875 6.6875 -0.265625 L 2.234375 -5.953125 C 2.242188 -5.828125 2.25 -5.703125 2.25 -5.578125 C 2.257812 -5.453125 2.265625 -5.34375 2.265625 -5.25 L 2.265625 0 L 0.859375 0 L 0.859375 -8.546875 Z M 1.6875 -8.546875 "/></g></g></g><g fill="#fb4f14" fill-opacity="1"><g transform="translate(248.20562, 132.615706)"><g><path d="M 6.734375 -2.015625 C 6.816406 -2.015625 6.890625 -1.976562 6.953125 -1.90625 L 7.578125 -1.234375 C 7.234375 -0.804688 6.804688 -0.476562 6.296875 -0.25 C 5.796875 -0.0195312 5.191406 0.09375 4.484375 0.09375 C 3.847656 0.09375 3.273438 -0.015625 2.765625 -0.234375 C 2.265625 -0.453125 1.832031 -0.753906 1.46875 -1.140625 C 1.113281 -1.523438 0.835938 -1.984375 0.640625 -2.515625 C 0.453125 -3.046875 0.359375 -3.628906 0.359375 -4.265625 C 0.359375 -4.910156 0.460938 -5.5 0.671875 -6.03125 C 0.890625 -6.5625 1.191406 -7.019531 1.578125 -7.40625 C 1.960938 -7.789062 2.425781 -8.09375 2.96875 -8.3125 C 3.507812 -8.53125 4.101562 -8.640625 4.75 -8.640625 C 5.382812 -8.640625 5.9375 -8.535156 6.40625 -8.328125 C 6.882812 -8.128906 7.289062 -7.863281 7.625 -7.53125 L 7.09375 -6.78125 C 7.0625 -6.738281 7.019531 -6.695312 6.96875 -6.65625 C 6.925781 -6.625 6.863281 -6.609375 6.78125 -6.609375 C 6.6875 -6.609375 6.59375 -6.644531 6.5 -6.71875 C 6.40625 -6.789062 6.285156 -6.863281 6.140625 -6.9375 C 5.992188 -7.019531 5.804688 -7.097656 5.578125 -7.171875 C 5.359375 -7.242188 5.078125 -7.28125 4.734375 -7.28125 C 4.335938 -7.28125 3.96875 -7.207031 3.625 -7.0625 C 3.289062 -6.925781 3 -6.726562 2.75 -6.46875 C 2.507812 -6.207031 2.320312 -5.890625 2.1875 -5.515625 C 2.050781 -5.148438 1.984375 -4.734375 1.984375 -4.265625 C 1.984375 -3.785156 2.050781 -3.359375 2.1875 -2.984375 C 2.320312 -2.609375 2.503906 -2.289062 2.734375 -2.03125 C 2.972656 -1.78125 3.25 -1.585938 3.5625 -1.453125 C 3.882812 -1.316406 4.222656 -1.25 4.578125 -1.25 C 4.796875 -1.25 4.992188 -1.257812 5.171875 -1.28125 C 5.347656 -1.3125 5.507812 -1.351562 5.65625 -1.40625 C 5.800781 -1.457031 5.9375 -1.519531 6.0625 -1.59375 C 6.195312 -1.675781 6.332031 -1.773438 6.46875 -1.890625 C 6.507812 -1.929688 6.550781 -1.960938 6.59375 -1.984375 C 6.632812 -2.003906 6.679688 -2.015625 6.734375 -2.015625 Z M 6.734375 -2.015625 "/></g></g></g><g fill="#fb4f14" fill-opacity="1"><g transform="translate(263.092627, 132.615706)"><g><path d="M 6.25 -8.546875 L 6.25 -7.28125 L 2.46875 -7.28125 L 2.46875 -4.90625 L 5.453125 -4.90625 L 5.453125 -3.6875 L 2.46875 -3.6875 L 2.46875 -1.265625 L 6.25 -1.265625 L 6.25 0 L 0.859375 0 L 0.859375 -8.546875 Z M 6.25 -8.546875 "/></g></g></g><g fill="#fb4f14" fill-opacity="1"><g transform="translate(276.822249, 132.615706)"><g><path d="M 8.453125 -4.265625 C 8.453125 -3.640625 8.34375 -3.066406 8.125 -2.546875 C 7.914062 -2.023438 7.625 -1.570312 7.25 -1.1875 C 6.875 -0.8125 6.421875 -0.519531 5.890625 -0.3125 C 5.359375 -0.101562 4.769531 0 4.125 0 L 0.859375 0 L 0.859375 -8.546875 L 4.125 -8.546875 C 4.769531 -8.546875 5.359375 -8.4375 5.890625 -8.21875 C 6.421875 -8.007812 6.875 -7.71875 7.25 -7.34375 C 7.625 -6.96875 7.914062 -6.515625 8.125 -5.984375 C 8.34375 -5.460938 8.453125 -4.890625 8.453125 -4.265625 Z M 6.828125 -4.265625 C 6.828125 -4.734375 6.757812 -5.15625 6.625 -5.53125 C 6.5 -5.90625 6.320312 -6.21875 6.09375 -6.46875 C 5.863281 -6.726562 5.582031 -6.925781 5.25 -7.0625 C 4.914062 -7.207031 4.539062 -7.28125 4.125 -7.28125 L 2.46875 -7.28125 L 2.46875 -1.265625 L 4.125 -1.265625 C 4.539062 -1.265625 4.914062 -1.332031 5.25 -1.46875 C 5.582031 -1.601562 5.863281 -1.800781 6.09375 -2.0625 C 6.320312 -2.320312 6.5 -2.632812 6.625 -3 C 6.757812 -3.375 6.828125 -3.796875 6.828125 -4.265625 Z M 6.828125 -4.265625 "/></g></g></g><g clip-path="url(#76b636d9d0)"><path fill="#ffffff" d="M 121.4375 20.449219 L 85.050781 20.449219 L 72.6875 39.226562 L 59.964844 20.449219 L 22.355469 20.449219 L 52.992188 64.058594 L 21.238281 108.382812 L 59.402344 108.382812 L 72.023438 88.4375 L 84.898438 108.382812 L 123.167969 108.382812 L 90.851562 62.992188 Z M 121.4375 20.449219 " fill-opacity="1" fill-rule="nonzero"/></g></svg>